{"title":"Younger.S01E04.WEBRip.proper.x264.mp4","uid":11818843,"size":181059344,"categoryP":"video","categoryS":"tv_shows","magnet":"?xt=urn:btih:69489db16bf833c7ed80943373454e13bb3678eb&amp;dn=Younger.S01E04.WEBRip.proper.x264.mp4&amp;tr=udp%3A%2F%2Ftracker.openbittorrent.com%3A80&amp;tr=udp%3A%2F%2Fopen.demonii.com%3A1337&amp;tr=udp%3A%2F%2Ftracker.coppersurfer.tk%3A6969&amp;tr=udp%3A%2F%2Fexodus.desync.com%3A6969","seeders":7,"leechers":0,"uploader":null,"files":1,"time":1429200620,"description":"Ripped from hulu - proper of younger.s01e04.webrip.x264 that had some glitch\n\nVideo\nID : 1\nFormat : AVC\nFormat/Info : Advanced Video Codec\nFormat profile : &lt;a class=&quot;__cf_email__&quot; href=&quot;/cdn-cgi/l/email-protection&quot; data-cfemail=&quot;f0bd91999eb0bcc3dec0&quot;&gt;[email&amp;#160;protected]&lt;/a&gt;&lt;script cf-hash='f9e31' type=&quot;text/javascript&quot;&gt;\n/* &lt;![CDATA[ */!function(){try{var t=&quot;currentScript&quot;in document?document.currentScript:function(){for(var t=document.getElementsByTagName(&quot;script&quot;),e=t.length;e--;)if(t[e].getAttribute(&quot;cf-hash&quot;))return t[e]}();if(t&amp;&amp;t.previousSibling){var e,r,n,i,c=t.previousSibling,a=c.getAttribute(&quot;data-cfemail&quot;);if(a){for(e=&quot;&quot;,r=parseInt(a.substr(0,2),16),n=2;a.length-n;n+=2)i=parseInt(a.substr(n,2),16)^r,e+=String.fromCharCode(i);e=document.createTextNode(e),c.parentNode.replaceChild(e,c)}}}catch(u){}}();/* ]]&gt; */&lt;/script&gt;\nFormat settings, CABAC : No\nFormat settings, ReFrames : 2 frames\nFormat settings, GOP : M=2, N=24\nCodec ID : avc1\nCodec ID/Info : Advanced Video Coding\nDuration : 20mn 32s\nBit rate : 1 050 Kbps\nWidth : 720 pixels\nHeight : 404 pixels\nDisplay aspect ratio : 16:9\nFrame rate mode : Constant\nFrame rate : 30.000 fps\nColor space : YUV\nChroma subsampling : 4:2:0\nBit depth : 8 bits\nScan type : Progressive\nBits/(Pixel*Frame) : 0.120\nStream size : 154 MiB (89%)\nLanguage : English\nEncoded date : UTC 2015-04-16 13:37:18\nTagged date : UTC 2015-04-16 13:53:43\nColor primaries : BT.601-6 525, BT.1358 525, BT.1700 NTSC, SMPTE 170M\nTransfer characteristics : BT.709-5, BT.1361\nMatrix coefficients : BT.601-6 525, BT.1358 525, BT.1700 NTSC, SMPTE 170M\n\nAudio\nID : 2\nFormat : AAC\nFormat/Info : Advanced Audio Codec\nFormat profile : LC\nCodec ID : 40\nDuration : 20mn 32s\nBit rate mode : Constant\nBit rate : 120 Kbps\nNominal bit rate : 128 Kbps\nChannel(s) : 2 channels\nChannel positions : Front: L R\nSampling rate : 44.1 KHz\nCompression mode : Lossy\nStream size : 17.6 MiB (10%)\nLanguage : English\nEncoded date : UTC 2015-04-16 13:37:19\nTagged date : UTC 2015-04-16 13:53:43","torrent":{"xt":"urn:btih:69489db16bf833c7ed80943373454e13bb3678eb","amp;dn":"Younger.S01E04.WEBRip.proper.x264.mp4","amp;tr":["udp%3A%2F%2Ftracker.openbittorrent.com%3A80","udp%3A%2F%2Fopen.demonii.com%3A1337","udp%3A%2F%2Ftracker.coppersurfer.tk%3A6969","udp%3A%2F%2Fexodus.desync.com%3A6969"],"infoHash":"69489db16bf833c7ed80943373454e13bb3678eb","infoHashBuffer":{"type":"Buffer","data":[105,72,157,177,107,248,51,199,237,128,148,51,115,69,78,19,187,54,120,235]},"announce":[],"urlList":[]}}